Coordinates
version=1
nRows=15
nColumns=26
inDegrees=yes

Units are S.I. units (second, meters, Newtons, ...)
Angles are in degrees.

endheader
time	pelvis_tilt	pelvis_list	pelvis_rotation	pelvis_tx	pelvis_ty	pelvis_tz	hip_flexion_r	hip_adduction_r	hip_rotation_r	knee_angle_r	knee_angle_r_beta	ankle_angle_r	subtalar_angle_r	mtp_angle_r	hip_flexion_l	hip_adduction_l	hip_rotation_l	knee_angle_l	knee_angle_l_beta	ankle_angle_l	subtalar_angle_l	mtp_angle_l	lumbar_extension	lumbar_bending	lumbar_rotation
      0.00000000	      4.72563868	     -4.24778139	     -4.34924396	      0.04724029	      0.98152580	      0.19424318	    -19.32392834	      5.02782885	      2.25142724	      7.58380387	      7.58380387	     13.37941048	      0.00000000	      0.00000000	     22.98561070	     -7.53229006	    -12.17842486	     14.49912498	     14.49912498	      0.10120246	      0.00000000	      0.00000000	    -19.94076540	      2.95060345	      8.04842126
      0.00833333	      4.95730752	     -4.04803070	     -4.82478861	      0.05753265	      0.98101987	      0.19412527	    -20.01399503	      4.52819340	      2.43322143	      7.94353229	      7.94353229	     13.41485796	      0.00000000	      0.00000000	     22.25665449	     -7.33567135	    -12.60350093	     14.77077627	     14.77077627	     -0.34008489	      0.00000000	      0.00000000	    -20.08795860	      2.46319416	      8.32024269
      0.01666667	      5.04684205	     -3.93154924	     -5.24852873	      0.06786779	      0.98034600	      0.19387603	    -20.43185329	      4.14247751	      2.48917016	      8.51107102	      8.51107102	     13.41965476	      0.00000000	      0.00000000	     21.85460646	     -7.24008133	    -12.71893051	     15.27806986	     15.27806986	     -0.89283163	      0.00000000	      0.00000000	    -20.06017806	      2.11683216	      8.54249128
      0.02500000	      5.10510625	     -3.83013090	     -5.60161160	      0.07818332	      0.97989319	      0.19339038	    -20.73188847	      3.78157917	      2.56169015	      9.25819367	      9.25819367	     13.46983449	      0.00000000	      0.00000000	     21.46430278	     -7.11954935	    -12.61097460	     15.72067761	     15.72067761	     -1.85542155	      0.00000000	      0.00000000	    -19.99872515	      1.82825091	      8.64123555
      0.03333333	      5.15480758	     -3.73564433	     -5.89712524	      0.08861294	      0.97957136	      0.19275806	    -20.92807710	      3.42822401	      2.52644502	     10.15797169	     10.15797169	     13.40703495	      0.00000000	      0.00000000	     21.00192672	     -6.97350264	    -12.51429281	     15.94714796	     15.94714796	     -2.95385452	      0.00000000	      0.00000000	    -19.89996247	      1.56737321	      8.71408488
      0.04166667	      5.14578135	     -3.69528357	     -6.12921966	      0.09903827	      0.97932204	      0.19204201	    -20.96864202	      3.14492599	      2.42646530	     11.18595001	     11.18595001	     13.15947074	      0.00000000	      0.00000000	     20.65630575	     -6.91348849	    -12.54307717	     16.24989402	     16.24989402	     -3.97016339	      0.00000000	      0.00000000	    -19.74809274	      1.39928510	      8.69280624
      0.05000000	      5.10544274	     -3.68029921	     -6.30100282	      0.10944985	      0.97922095	      0.19124128	    -20.83163737	      2.90410182	      2.33187856	     12.46814028	     12.46814028	     12.90890782	      0.00000000	      0.00000000	     20.43280182	     -6.92666366	    -12.57305884	     16.80581408	     16.80581408	     -4.62869810	      0.00000000	      0.00000000	    -19.55590806	      1.28193589	      8.61653134
      0.05833333	      5.16783651	     -3.59482066	     -6.39524782	      0.11989700	      0.97958278	      0.19047411	    -20.66602311	      2.59614010	      2.09645662	     13.99303170	     13.99303170	     12.58353698	      0.00000000	      0.00000000	     19.93183908	     -6.81962949	    -12.70216144	     17.13631498	     17.13631498	     -4.84652991	      0.00000000	      0.00000000	    -19.47602968	      1.06744782	      8.45656764
      0.06666667	      5.14625863	     -3.50115803	     -6.44602769	      0.13015620	      0.98015155	      0.18970329	    -20.19781347	      2.29867021	      1.82323358	     15.84567486	     15.84567486	     12.17346098	      0.00000000	      0.00000000	     19.71991552	     -6.73411272	    -12.72298216	     17.92327369	     17.92327369	     -4.31909018	      0.00000000	      0.00000000	    -19.33336358	      0.86101928	      8.23945994
      0.07500000	      5.12596070	     -3.21051628	     -6.42554115	      0.14023899	      0.98110790	      0.18873162	    -19.51224296	      1.79767214	      1.43060258	     18.03555839	     18.03555839	     11.72314891	      0.00000000	      0.00000000	     19.63991882	     -6.40523087	    -12.57177900	     18.99343371	     18.99343371	     -3.38791447	      0.00000000	      0.00000000	    -19.21578351	      0.45596035	      7.91995210
      0.08333333	      5.17008489	     -2.91717021	     -6.31522349	      0.15034024	      0.98246247	      0.18769304	    -18.76113201	      1.30375852	      1.04005274	     20.41506795	     20.41506795	     11.12902765	      0.00000000	      0.00000000	     19.47035752	     -6.01196738	    -12.29590755	     20.00173514	     20.00173514	     -2.47635143	      0.00000000	      0.00000000	    -19.18346377	      0.06060286	      7.53850008
      0.09166667	      5.24581189	     -2.64869366	     -6.23075941	      0.16029820	      0.98408783	      0.18663505	    -17.82519774	      0.79838704	      0.67212590	     23.13332473	     23.13332473	     10.31967641	      0.00000000	      0.00000000	     19.20231527	     -5.65612102	    -12.01730418	     20.91801877	     20.91801877	     -1.54899750	      0.00000000	      0.00000000	    -19.22444636	     -0.31491580	      7.26861093
      0.10000000	      5.45886945	     -2.42084862	     -6.09631610	      0.17023537	      0.98607702	      0.18540475	    -16.93993255	      0.32286593	      0.36971805	     25.95397459	     25.95397459	      9.22064316	      0.00000000	      0.00000000	     18.61390426	     -5.24529805	    -11.71785333	     21.44776510	     21.44776510	     -0.86504061	      0.00000000	      0.00000000	    -19.43760757	     -0.61630267	      6.99610697
      0.10833333	      5.69497907	     -2.20682355	     -5.96309916	      0.18015629	      0.98808985	      0.18411084	    -15.93013373	     -0.17803466	      0.03938031	     28.96959545	     28.96959545	      7.89641327	      0.00000000	      0.00000000	     17.82260295	     -4.79074142	    -11.49177141	     21.59454867	     21.59454867	     -0.32532734	      0.00000000	      0.00000000	    -19.67450238	     -0.88216715	      6.78016478
      0.11666667	      5.92537644	     -1.95230906	     -5.88596486	      0.19000523	      0.99010165	      0.18279399	    -14.75172473	     -0.76072568	     -0.22340665	     32.16250227	     32.16250227	      6.27641477	      0.00000000	      0.00000000	     16.86137821	     -4.28478645	    -11.51103477	     21.44257677	     21.44257677	      0.20666161	      0.00000000	      0.00000000	    -19.89397168	     -1.18110350	      6.63447024
